<?xml version="1.0" standalone="no"?>
<!DOCTYPE svg PUBLIC "-//W3C//DTD SVG 20010904//EN"
 "http://www.w3.org/TR/2001/REC-SVG-20010904/DTD/svg10.dtd">
<svg version="1.0" xmlns="http://www.w3.org/2000/svg"
 width="920.000000pt" height="521.000000pt" viewBox="0 0 920.000000 521.000000"
 preserveAspectRatio="xMidYMid meet">

<g transform="translate(0.000000,521.000000) scale(0.100000,-0.100000)"
fill="#000000" stroke="none">
<path d="M2850 4140 c-85 -29 -150 -69 -211 -131 -116 -118 -182 -275 -201
-479 -14 -144 0 -330 32 -435 68 -223 206 -374 400 -436 64 -21 94 -24 205
-23 114 0 140 4 212 28 192 63 311 198 349 394 8 41 14 78 14 83 0 5 -29 9
-64 9 l-63 0 -12 -57 c-44 -217 -203 -343 -431 -343 -241 0 -411 141 -481 401
-14 51 -22 120 -26 219 -4 124 -2 160 17 249 65 317 259 465 563 431 103 -12
192 -55 256 -125 47 -53 91 -144 91 -191 0 -23 3 -24 68 -24 l68 0 -7 58 c-19
163 -142 306 -314 367 -64 22 -85 25 -240 24 -141 0 -179 -3 -225 -19z"/>
<path d="M5525 4146 c-140 -28 -261 -92 -352 -187 -70 -73 -85 -94 -121 -166
-92 -181 -112 -439 -54 -658 96 -356 413 -549 831 -507 334 34 556 225 631
542 32 137 31 328 -3 461 -67 259 -237 437 -482 504 -83 23 -355 29 -450 11z
m335 -379 c53 -27 105 -92 120 -149 49 -178 35 -398 -31 -514 -21 -38 -42 -58
-81 -80 -48 -26 -62 -29 -143 -29 -82 0 -95 3 -144 31 -104 58 -147 185 -138
404 7 174 38 259 114 317 74 57 213 66 303 20z"/>
<path d="M2090 3405 l0 -735 65 0 65 0 0 735 0 735 -65 0 -65 0 0 -735z"/>
<path d="M3810 3407 l0 -734 235 0 235 0 0 259 0 258 255 0 255 0 0 175 0 175
-255 0 -255 0 0 115 0 115 320 0 320 0 0 185 0 185 -555 0 -555 0 0 -733z"/>
<path d="M5933 2183 c-3 -6 -3 -22 -1 -35 3 -20 9 -23 56 -26 l52 -3 0 35 c0
34 0 34 -51 38 -33 2 -53 -1 -56 -9z"/>
<path d="M3809 2188 c0 -2 -1 -22 -2 -46 l-2 -42 53 0 52 0 0 -125 0 -125 50
0 49 0 3 123 3 122 48 3 47 3 0 45 0 44 -150 0 c-82 0 -150 -1 -151 -2z"/>
<path d="M4147 2183 c-4 -3 -7 -80 -7 -170 l0 -163 50 0 50 0 0 69 c0 76 21
118 52 106 20 -8 32 -73 26 -135 l-4 -40 51 0 50 0 -5 104 c-6 126 -18 146
-88 146 -28 0 -52 -6 -64 -17 -17 -15 -18 -14 -18 45 l0 62 -43 0 c-24 0 -47
-3 -50 -7z"/>
<path d="M4948 2020 l-3 -170 58 0 57 0 0 170 0 170 -55 0 -54 0 -3 -170z"/>
<path d="M5750 2135 c0 -28 -4 -35 -20 -35 -16 0 -20 -7 -20 -30 0 -23 4 -30
20 -30 18 0 20 -7 20 -84 0 -76 2 -86 22 -100 13 -9 43 -16 70 -16 l48 0 0 40
c0 33 -3 40 -20 40 -18 0 -20 7 -20 60 0 53 2 60 20 60 16 0 20 7 20 30 0 23
-4 30 -20 30 -16 0 -20 7 -20 35 l0 35 -50 0 -50 0 0 -35z"/>
<path d="M6110 2136 c0 -25 -5 -35 -20 -39 -14 -3 -20 -14 -20 -31 0 -19 5
-26 20 -26 18 0 20 -7 20 -84 0 -76 2 -86 22 -100 14 -10 44 -16 75 -16 l53 0
0 40 c0 36 -2 40 -25 40 -24 0 -25 3 -25 60 0 57 1 60 25 60 21 0 25 5 25 30
0 25 -4 30 -25 30 -22 0 -25 4 -25 35 l0 35 -50 0 -50 0 0 -34z"/>
<path d="M6640 2135 c0 -28 -4 -35 -20 -35 -16 0 -20 -7 -20 -30 0 -23 4 -30
20 -30 18 0 20 -7 20 -84 0 -76 2 -86 22 -100 13 -9 43 -16 70 -16 l48 0 0 39
c0 33 -4 40 -22 43 -20 3 -23 10 -26 61 -3 55 -2 57 23 57 21 0 25 5 25 30 0
25 -4 30 -25 30 -22 0 -25 4 -25 35 0 35 0 35 -45 35 -45 0 -45 0 -45 -35z"/>
<path d="M4501 2074 c-61 -51 -64 -150 -6 -204 34 -32 136 -40 183 -16 27 14
52 43 52 60 0 10 -99 6 -105 -4 -11 -17 -54 -11 -65 9 -5 11 -10 22 -10 25 0
3 43 6 95 6 89 0 95 1 95 20 0 34 -26 85 -55 108 -42 34 -142 31 -184 -4z
m120 -34 c36 -20 23 -40 -26 -40 -49 0 -53 4 -28 32 19 21 27 22 54 8z"/>
<path d="M5120 1975 l0 -125 50 0 49 0 3 81 c2 63 7 84 20 92 33 21 48 -8 48
-93 l0 -78 50 -4 50 -3 0 93 c0 97 -14 144 -45 156 -30 11 -90 6 -113 -10 -20
-14 -22 -14 -22 0 0 12 -11 16 -45 16 l-45 0 0 -125z"/>
<path d="M5455 2068 c-20 -23 -25 -38 -20 -57 8 -35 29 -49 98 -68 42 -12 57
-21 55 -32 -5 -25 -45 -26 -58 -2 -8 16 -20 21 -55 21 -32 0 -45 -4 -45 -14 0
-50 45 -76 130 -76 72 0 117 20 126 55 15 59 -18 95 -98 110 -46 9 -69 31 -43
41 10 4 26 2 36 -4 23 -15 99 -16 99 -2 0 6 -11 22 -25 35 -21 22 -33 25 -99
25 -71 0 -75 -1 -101 -32z"/>
<path d="M5932 1975 l-1 -125 55 0 54 0 0 125 0 125 -54 0 -54 0 0 -125z"/>
<path d="M6296 2091 c-3 -5 -4 -53 -1 -107 4 -92 6 -101 30 -121 31 -27 85
-30 120 -7 15 10 25 12 25 5 0 -6 19 -11 48 -11 l47 0 -3 125 -3 125 -45 0
-44 0 0 -71 c0 -78 -11 -109 -40 -109 -29 0 -40 31 -40 109 l0 71 -44 0 c-25
0 -47 -4 -50 -9z"/>
<path d="M6875 2089 c-81 -41 -84 -193 -4 -234 36 -19 132 -19 168 -1 15 8 32
26 39 40 l12 26 -50 0 c-27 0 -52 -4 -55 -10 -15 -25 -75 -4 -75 27 0 10 24
13 96 13 l96 0 -7 33 c-10 46 -31 83 -57 101 -25 18 -130 21 -163 5z m109 -55
c26 -25 19 -34 -29 -34 -25 0 -45 4 -45 9 0 14 30 41 45 41 7 0 21 -7 29 -16z"/>
<path d="M4190 1617 c-16 -8 -28 -26 -34 -50 -5 -20 -15 -37 -23 -37 -8 0 -13
-12 -13 -30 0 -20 5 -30 15 -30 12 0 15 -17 15 -95 l0 -95 50 0 50 0 0 95 c0
88 1 95 20 95 16 0 20 7 20 30 0 23 -4 30 -20 30 -11 0 -20 7 -20 15 0 8 9 15
20 15 16 0 20 7 20 35 0 34 -1 35 -37 35 -21 0 -49 -6 -63 -13z"/>
<path d="M6300 1590 l0 -40 50 0 50 0 0 40 0 40 -50 0 -50 0 0 -40z"/>
<path d="M4480 1450 l0 -170 55 0 55 0 0 50 0 50 53 0 c61 0 117 25 134 60 22
44 16 96 -14 130 -34 38 -79 49 -195 50 l-88 0 0 -170z m198 51 c4 -29 -12
-41 -55 -41 -31 0 -33 2 -33 36 l0 35 43 -3 c36 -3 43 -7 45 -27z"/>
<path d="M4830 1450 l0 -170 50 0 49 0 3 83 3 82 30 0 30 0 3 -82 3 -83 49 0
50 0 0 84 c0 92 -13 141 -40 156 -24 13 -86 13 -111 0 -18 -10 -19 -7 -19 45
l0 55 -50 0 -50 0 0 -170z"/>
<path d="M5480 1570 c0 -33 -3 -40 -20 -40 -16 0 -20 -7 -20 -30 0 -23 4 -30
20 -30 18 0 20 -7 20 -84 0 -100 7 -108 88 -110 l57 -1 3 32 c3 28 -1 33 -22
39 -24 6 -26 10 -26 65 0 52 2 59 20 59 16 0 20 7 20 30 0 23 -4 30 -20 30
-17 0 -20 7 -20 40 l0 40 -50 0 -50 0 0 -40z"/>
<path d="M3906 1530 c-41 -13 -75 -48 -86 -90 -13 -50 -4 -91 30 -132 27 -32
30 -33 103 -33 70 0 78 2 106 29 57 54 49 171 -14 207 -38 22 -101 31 -139 19z
m78 -82 c35 -49 1 -132 -44 -108 -27 15 -29 104 -2 119 24 15 29 14 46 -11z"/>
<path d="M5221 1527 c-54 -21 -81 -60 -81 -118 0 -28 7 -64 16 -80 40 -79 201
-78 247 0 37 62 9 169 -49 191 -44 17 -98 20 -133 7z m83 -73 c41 -40 4 -139
-43 -114 -28 15 -31 103 -3 119 23 14 28 14 46 -5z"/>
<path d="M5737 1528 c-55 -15 -82 -58 -82 -130 0 -52 3 -61 33 -90 31 -31 36
-33 108 -33 73 0 77 1 105 33 25 27 29 41 29 88 0 63 -20 106 -57 123 -37 17
-94 21 -136 9z m74 -68 c27 -15 28 -105 0 -119 -30 -16 -56 10 -56 57 0 22 7
47 14 56 16 19 17 19 42 6z"/>
<path d="M6533 1529 c-17 -5 -43 -23 -57 -40 -21 -25 -26 -41 -26 -85 0 -65
20 -101 67 -120 34 -15 101 -17 143 -5 23 6 70 62 70 82 0 5 -24 9 -53 9 -41
0 -55 -4 -65 -20 -15 -24 -25 -25 -46 -4 -31 31 -13 124 25 124 5 0 17 -9 26
-20 13 -15 30 -20 66 -20 46 0 48 1 41 23 -7 25 -31 55 -54 67 -26 14 -104 19
-137 9z"/>
<path d="M5980 1405 l0 -125 50 0 49 0 3 83 3 82 30 0 30 0 3 -82 3 -83 49 0
50 0 0 84 c0 92 -13 141 -40 156 -28 15 -93 12 -118 -6 -20 -14 -22 -14 -22 0
0 12 -11 16 -45 16 l-45 0 0 -125z"/>
<path d="M6300 1405 l0 -125 50 0 50 0 0 125 0 125 -50 0 -50 0 0 -125z"/>
<path d="M3910 1049 c-109 -32 -119 -154 -15 -193 22 -9 44 -16 48 -16 4 0 24
-7 44 -15 30 -13 33 -17 23 -30 -16 -20 -69 -20 -76 0 -5 11 -21 15 -60 15
-59 0 -63 -6 -37 -51 23 -39 70 -59 138 -59 93 0 145 40 145 113 0 54 -39 91
-111 106 -66 14 -84 24 -76 45 8 20 51 21 67 1 14 -17 110 -22 110 -5 0 23
-26 63 -50 75 -37 19 -109 26 -150 14z"/>
<path d="M4480 1023 l0 -38 50 3 c50 4 50 4 50 38 l0 34 -50 0 -50 0 0 -37z"/>
<path d="M4235 955 c-49 -23 -66 -41 -75 -81 -25 -110 37 -180 152 -172 47 3
64 10 88 33 17 16 30 37 30 47 0 15 -8 18 -49 18 -34 0 -51 -4 -55 -15 -6 -18
-52 -20 -62 -3 -13 21 -8 99 7 109 24 15 51 10 56 -11 4 -17 14 -20 54 -20 43
0 49 3 49 21 0 28 -52 75 -91 83 -46 9 -70 7 -104 -9z"/>
<path d="M4705 956 c-16 -7 -41 -26 -55 -41 -21 -22 -25 -37 -25 -86 0 -53 3
-62 32 -91 27 -27 41 -32 91 -36 70 -5 123 15 140 53 11 25 11 25 -38 25 -27
0 -52 -4 -55 -10 -15 -25 -75 -4 -75 27 0 10 24 13 96 13 l96 0 -6 38 c-17 95
-114 147 -201 108z m95 -65 c15 -30 14 -31 -35 -31 -48 0 -55 9 -29 34 21 22
51 20 64 -3z"/>
<path d="M5078 951 c-30 -15 -38 -16 -38 -5 0 10 -13 14 -45 14 l-45 0 0 -125
0 -125 50 0 49 0 3 81 c2 63 7 84 20 92 33 21 48 -8 48 -94 l0 -79 50 0 50 0
0 99 c0 90 -2 102 -22 125 -32 35 -75 41 -120 17z"/>
<path d="M5333 955 c-94 -40 -96 -192 -4 -240 43 -21 119 -19 159 5 26 16 52
53 52 76 0 2 -23 4 -50 4 -36 0 -52 -4 -56 -15 -9 -21 -51 -19 -64 4 -34 64
23 148 62 92 10 -13 26 -18 61 -18 51 0 54 4 32 46 -26 52 -125 76 -192 46z"/>
<path d="M5665 963 c-81 -21 -119 -115 -79 -198 23 -49 67 -69 144 -63 56 4
66 8 94 39 l30 34 -48 3 c-27 2 -54 -2 -59 -7 -24 -24 -77 -6 -77 26 0 10 24
13 95 13 l96 0 -7 38 c-16 90 -95 138 -189 115z m79 -69 c26 -25 19 -34 -29
-34 -46 0 -58 13 -33 38 17 17 44 15 62 -4z"/>
<path d="M5940 952 c-41 -20 -59 -60 -43 -95 11 -24 59 -47 126 -61 32 -8 36
-32 5 -42 -16 -5 -27 -1 -39 15 -13 16 -28 21 -63 21 l-45 0 11 -30 c14 -40
54 -60 123 -60 92 0 143 40 130 100 -7 33 -36 54 -85 64 -60 13 -70 17 -70 32
0 16 45 20 55 4 8 -12 95 -13 95 -1 0 4 -11 20 -25 33 -41 41 -117 50 -175 20z"/>
<path d="M4480 835 l0 -125 50 0 50 0 0 125 0 125 -50 0 -50 0 0 -125z"/>
</g>
</svg>
